<svg width="42" height="40" viewBox="0 0 42 40" fill="none" xmlns="http://www.w3.org/2000/svg">
<path fill-rule="evenodd" clip-rule="evenodd" d="M12.13 0.119514C14.3119 0.0221281 15.0074 0 20.5632 0C26.1201 0 26.8145 0.0232327 28.9952 0.119514C31.1736 0.215794 32.6613 0.553312 33.9624 1.04574C35.3271 1.54609 36.5633 2.33004 37.5852 3.34307C38.6256 4.33798 39.4308 5.54192 39.9444 6.87093C40.45 8.13799 40.7955 9.58655 40.8955 11.7068C40.9956 13.8315 41.0183 14.5087 41.0183 19.9189C41.0183 25.3291 40.9945 26.0063 40.8955 28.1312C40.7966 30.2513 40.45 31.6999 39.9444 32.9669C39.4217 34.2761 38.7215 35.3882 37.5852 36.4947C36.5635 37.5079 35.3271 38.292 33.9624 38.7921C32.6613 39.2845 31.1736 39.6209 28.9965 39.7184C26.8145 39.8158 26.119 39.8379 20.5632 39.8379C15.0074 39.8379 14.3119 39.8147 12.13 39.7184C9.95273 39.622 8.46518 39.2845 7.16401 38.7921C5.81965 38.2831 4.67759 37.6013 3.5412 36.4947C2.50073 35.4999 1.69562 34.2959 1.18204 32.9669C0.676358 31.6999 0.330891 30.2513 0.230885 28.1312C0.130878 26.0063 0.108154 25.3302 0.108154 19.9189C0.108154 14.5076 0.132012 13.8315 0.230885 11.7079C0.329757 9.58655 0.676358 8.13799 1.18204 6.87093C1.69586 5.54201 2.50091 4.33813 3.5412 3.34307C4.56287 2.32986 5.79922 1.54585 7.16401 1.04574C8.46518 0.553312 9.95273 0.216899 12.13 0.119514ZM28.8293 3.70492C26.6724 3.60975 26.0247 3.58872 20.5632 3.58872C15.1017 3.58872 14.454 3.60975 12.2971 3.70492C10.3027 3.79345 9.21975 4.11768 8.49926 4.39102C7.5447 4.75177 6.86286 5.18334 6.14693 5.8805C5.43216 6.57767 4.98782 7.24164 4.61736 8.17118C4.33666 8.87278 4.00371 9.92738 3.91279 11.8695C3.81506 13.9698 3.79347 14.6006 3.79347 19.9189C3.79347 25.2373 3.81506 25.868 3.91279 27.9684C4.00371 29.9105 4.33666 30.9651 4.61736 31.6668C4.94505 32.532 5.46773 33.3146 6.14693 33.9574C6.80689 34.6187 7.61072 35.1278 8.49926 35.4468C9.21975 35.7203 10.3027 36.0444 12.2971 36.1329C14.454 36.2282 15.1006 36.2492 20.5632 36.2492C26.0258 36.2492 26.6724 36.2282 28.8293 36.1329C30.8236 36.0444 31.9067 35.7203 32.6272 35.4468C33.5817 35.0861 34.2636 34.6546 34.9796 33.9574C35.6587 33.3148 36.1814 32.532 36.509 31.6668C36.7898 30.9651 37.1227 29.9105 37.2136 27.9684C37.3114 25.868 37.333 25.2373 37.333 19.9189C37.333 14.6006 37.3114 13.9698 37.2136 11.8695C37.1227 9.92738 36.7898 8.87278 36.509 8.17118C36.1386 7.24164 35.6955 6.57767 34.9796 5.8805C34.2636 5.18446 33.5817 4.75177 32.6272 4.39102C31.9067 4.11768 30.8236 3.79345 28.8293 3.70492ZM17.9515 26.0592C18.7795 26.3933 19.6669 26.5652 20.5632 26.5652C22.3735 26.5652 24.1094 25.8649 25.3893 24.6185C26.6694 23.3722 27.3885 21.6816 27.3885 19.9189C27.3885 18.1563 26.6694 16.4657 25.3893 15.2193C24.1094 13.9729 22.3735 13.2726 20.5632 13.2726C19.6669 13.2726 18.7795 13.4446 17.9515 13.7786C17.1232 14.1126 16.3709 14.6021 15.7371 15.2193C15.1034 15.8365 14.6006 16.5691 14.2576 17.3755C13.9146 18.1818 13.7381 19.0461 13.7381 19.9189C13.7381 20.7917 13.9146 21.656 14.2576 22.4624C14.6006 23.2688 15.1034 24.0014 15.7371 24.6185C16.3709 25.2357 17.1232 25.7253 17.9515 26.0592ZM13.1288 12.6793C15.1006 10.7593 17.7748 9.68058 20.5632 9.68058C23.3518 9.68058 26.026 10.7593 27.9977 12.6793C29.9694 14.5994 31.0771 17.2036 31.0771 19.9189C31.0771 22.6342 29.9694 25.2384 27.9977 27.1586C26.026 29.0786 23.3518 30.1573 20.5632 30.1573C17.7748 30.1573 15.1006 29.0786 13.1288 27.1586C11.1571 25.2384 10.0494 22.6342 10.0494 19.9189C10.0494 17.2036 11.1571 14.5994 13.1288 12.6793ZM33.4084 11.206C33.8744 10.7521 34.1363 10.1365 34.1363 9.49469C34.1363 8.85281 33.8744 8.23724 33.4084 7.78338C32.9422 7.32952 32.3102 7.07454 31.651 7.07454C30.9919 7.07454 30.3597 7.32952 29.8937 7.78338C29.4275 8.23724 29.1657 8.85281 29.1657 9.49469C29.1657 10.1365 29.4275 10.7521 29.8937 11.206C30.3597 11.6599 30.9919 11.9148 31.651 11.9148C32.3102 11.9148 32.9422 11.6599 33.4084 11.206Z" fill="white"/>
</svg>
