 <svg xmlns="http://www.w3.org/2000/svg" viewBox="0 0 1440 320">
      <path fill="#ff9daf" fill-opacity="1"
        d="M0,192L34.3,165.3C68.6,139,137,85,206,96C274.3,107,343,181,411,197.3C480,213,549,171,617,154.7C685.7,139,754,149,823,176C891.4,203,960,245,1029,256C1097.1,267,1166,245,1234,208C1302.9,171,1371,117,1406,90.7L1440,64L1440,320L1405.7,320C1371.4,320,1303,320,1234,320C1165.7,320,1097,320,1029,320C960,320,891,320,823,320C754.3,320,686,320,617,320C548.6,320,480,320,411,320C342.9,320,274,320,206,320C137.1,320,69,320,34,320L0,320Z">
      </path>
    </svg>